# xmcd
# 
# Track frame offsets:
#     150
#     17656
#     36402
#     55392
#     75106
#     92866
#     107031
#     137377
#     156983
#     177178
# 
# Disc length: 2643
# 
# Revision: 1
# Processed by: cddbd v1.5.2PL0 Copyright (c) Steve Scherf et al.
# Submitted via: fre:ac v1.0.31
# 
DISCID=750a510a
DTITLE=Kris Kristofferson Tribute - The Life And Songs Of Kris Kristofferson Disc 2
DYEAR=2017
DGENRE=Country
TTITLE0=Dierks Bentley and The Travelin' McCourys - From the Bottle to the Bottom
TTITLE1=Lady Antebellum - Help Me Make It Through The Night
TTITLE2=Darius Rucker - Under The Gun
TTITLE3=Jamey Johnson and Alison Krauss - For The Good Times
TTITLE4=Alison Krauss - Casey's Last Ride
TTITLE5=Hank Williams Jr. - If You Don't Like Hank Williams
TTITLE6=Eric Church - To Beat The Devil
TTITLE7=Reba McEntire - Me and Bobby McGee
TTITLE8=Willie Nelson and Kris Kristofferson - Sunday Mornin' Comin' Down
TTITLE9=Kris Kristofferson - Why Me Lord
EXTD=
EXTT0=
EXTT1=
EXTT2=
EXTT3=
EXTT4=
EXTT5=
EXTT6=
EXTT7=
EXTT8=
EXTT9=
PLAYORDER=
